<svg xmlns="http://www.w3.org/2000/svg" viewBox="0 0 100 100">
  <defs>
    <linearGradient id="g" x1="0" y1="0" x2="1" y2="1">
      <stop offset="0%" stop-color="#a855f7"/>
      <stop offset="100%" stop-color="#3b82f6"/>
    </linearGradient>
  </defs>
  <rect width="100" height="100" rx="22" fill="url(#g)"/>
  <!-- Controller body -->
  <rect x="15" y="29" width="70" height="47" rx="14" fill="white"/>
  <!-- Left grip -->
  <rect x="15" y="56" width="24" height="22" rx="0 0 11 0" fill="white"/>
  <!-- Right grip -->
  <rect x="61" y="56" width="24" height="22" rx="0 0 0 11" fill="white"/>
  <!-- Bumper L -->
  <rect x="17" y="21" width="25" height="10" rx="5" fill="#c4b5fd"/>
  <!-- Bumper R -->
  <rect x="58" y="21" width="25" height="10" rx="5" fill="#c4b5fd"/>
  <!-- D-pad vertical -->
  <rect x="32" y="36" width="6" height="20" rx="3" fill="url(#g)"/>
  <!-- D-pad horizontal -->
  <rect x="26" y="42" width="18" height="6" rx="3" fill="url(#g)"/>
  <!-- Buttons -->
  <circle cx="71" cy="40" r="5" fill="url(#g)"/>
  <circle cx="80" cy="50" r="5" fill="url(#g)"/>
  <circle cx="71" cy="60" r="5" fill="url(#g)"/>
  <circle cx="62" cy="50" r="5" fill="url(#g)"/>
  <!-- Center button -->
  <circle cx="50" cy="38" r="6" fill="#ddd6fe"/>
  <circle cx="50" cy="38" r="3" fill="#7c3aed"/>
</svg>
